<?xml version="1.0"?>
<svg xmlns="http://www.w3.org/2000/svg" xmlns:xlink="http://www.w3.org/1999/xlink" xmlns:svgjs="http://svgjs.com/svgjs" version="1.1" width="512" height="512" x="0" y="0" viewBox="0 0 486.986 486.986" style="enable-background:new 0 0 512 512" xml:space="preserve" class=""><g>
<g xmlns="http://www.w3.org/2000/svg">
	<path style="" d="M406.761,136.359v182.857c-11.494-6.792-24.555-11.494-38.139-12.539V136.359H406.761z" fill="#357f5a" data-original="#00efd1" class=""/>
	<path style="" d="M289.732,339.069V188.604h38.661v123.82c-14.629,5.747-27.69,15.151-37.094,27.69L289.732,339.069z" fill="#357f5a" data-original="#00efd1" class=""/>
	<rect x="211.365" y="246.074" style="" width="38.661" height="180.767" fill="#357f5a" data-original="#00efd1" class=""/>
	<rect x="132.475" y="269.584" style="" width="38.661" height="157.78" fill="#357f5a" data-original="#00efd1" class=""/>
	<rect x="53.585" y="355.788" style="" width="38.661" height="71.576" fill="#357f5a" data-original="#00efd1" class=""/>
</g>
<path xmlns="http://www.w3.org/2000/svg" style="" d="M421.389,7.314C417.732,2.612,411.463,0,405.193,0l-58.514,2.612  c-6.269,0-11.494,5.224-11.494,11.494S340.41,25.6,346.679,25.6l43.363-2.612l-107.625,106.58l-37.094-38.139  c-2.09-2.09-1.567-3.657-6.792-3.657c-2.612,0.522-5.747,1.567-7.837,3.135L37.912,283.167c-4.18,3.657-4.18,9.926-0.522,14.106  l0.522,0.522c3.657,4.18,9.926,4.18,14.106,0.522l0.522-0.522l184.947-184.947l37.616,37.616c2.09,2.09,4.702,3.135,7.314,3.135  s5.747-1.045,7.314-3.135L404.671,35.527V80.98c0,6.269,4.18,11.494,10.449,12.539c6.269-1.045,10.449-6.269,10.449-12.539V19.331  C425.569,15.151,424.002,10.449,421.389,7.314L421.389,7.314z" fill="#efb93f" data-original="#00acea" class=""/>
<path xmlns="http://www.w3.org/2000/svg" style="" d="M327.349,309.812c10.449-4.18,21.943-6.269,33.437-6.269h7.314  c14.106,1.045,27.69,5.224,39.706,12.539c43.363,26.122,57.469,82.547,31.347,126.433c-26.122,43.363-82.547,57.469-126.433,31.347  c-27.167-16.196-43.886-45.453-44.408-77.322c0-20.898,7.314-41.273,20.375-57.992C298.614,325.486,312.198,315.559,327.349,309.812  z" fill="#efb93f" data-original="#fedb41" class=""/>
<path xmlns="http://www.w3.org/2000/svg" style="" d="M360.785,387.657c-6.792,0-12.016-5.224-12.016-12.016s5.224-12.016,12.016-12.016  c6.792,0,12.016,5.224,12.016,12.016l0,0c0,5.747,4.702,10.449,10.449,10.449c5.747,0,10.971-4.702,11.494-10.449  c-0.522-13.061-8.359-25.077-20.375-30.824v-7.837c0-5.747-4.702-10.449-10.449-10.449c-5.747,0-10.449,4.702-10.449,10.449v6.792  c-15.151,3.135-25.6,16.718-25.078,31.869c0,18.286,14.629,32.914,32.914,32.914l0,0c6.792,0.522,12.016,5.747,12.016,12.539  s-5.224,12.016-12.016,12.016h-0.522c-6.792,0-12.016-5.224-12.016-12.016l0,0c0-5.747-4.702-10.449-10.449-10.449  c-5.224,0-9.926,4.18-9.926,9.926v0.522c0,15.151,10.449,28.212,25.078,31.869v4.18c0,5.747,4.702,10.449,10.449,10.449  c5.747,0,10.449-4.702,10.449-10.449v-5.224c12.016-5.747,19.853-17.763,20.375-30.824  C394.222,402.286,379.594,387.657,360.785,387.657z" fill="#357f5a" data-original="#3bb54a" class=""/>
<g xmlns="http://www.w3.org/2000/svg">
</g>
<g xmlns="http://www.w3.org/2000/svg">
</g>
<g xmlns="http://www.w3.org/2000/svg">
</g>
<g xmlns="http://www.w3.org/2000/svg">
</g>
<g xmlns="http://www.w3.org/2000/svg">
</g>
<g xmlns="http://www.w3.org/2000/svg">
</g>
<g xmlns="http://www.w3.org/2000/svg">
</g>
<g xmlns="http://www.w3.org/2000/svg">
</g>
<g xmlns="http://www.w3.org/2000/svg">
</g>
<g xmlns="http://www.w3.org/2000/svg">
</g>
<g xmlns="http://www.w3.org/2000/svg">
</g>
<g xmlns="http://www.w3.org/2000/svg">
</g>
<g xmlns="http://www.w3.org/2000/svg">
</g>
<g xmlns="http://www.w3.org/2000/svg">
</g>
<g xmlns="http://www.w3.org/2000/svg">
</g>
<script/></g></svg>
