<?xml version="1.0"?>
<svg xmlns="http://www.w3.org/2000/svg" xmlns:xlink="http://www.w3.org/1999/xlink" xmlns:svgjs="http://svgjs.com/svgjs" version="1.1" width="512" height="512" x="0" y="0" viewBox="0 0 24 24" style="enable-background:new 0 0 512 512" xml:space="preserve" class=""><g><path xmlns="http://www.w3.org/2000/svg" d="m12 6.25c-1.241 0-2.25-1.009-2.25-2.25s1.009-2.25 2.25-2.25 2.25 1.009 2.25 2.25-1.009 2.25-2.25 2.25z" fill="#357f5a" data-original="#90a4ae" style="" class=""/><path xmlns="http://www.w3.org/2000/svg" d="m21.25 22.25h-18.5c-1.105 0-2-.895-2-2v-7.5c0-1.105.895-2 2-2h18.5c1.105 0 2 .895 2 2v7.5c0 1.105-.895 2-2 2z" fill="#357f5a" data-original="#607d8b" style="" class=""/><path xmlns="http://www.w3.org/2000/svg" d="m10.75 17.75h-2.5c-.414 0-.75-.336-.75-.75s.336-.75.75-.75h2.5c.414 0 .75.336.75.75s-.336.75-.75.75z" fill="#efb93f" data-original="#000000" style="" class=""/><path xmlns="http://www.w3.org/2000/svg" d="m10.75 20h-1.5c-.965 0-1.75-.785-1.75-1.75v-2.5c0-.965.785-1.75 1.75-1.75h1.5c.414 0 .75.336.75.75s-.336.75-.75.75h-1.5c-.138 0-.25.112-.25.25v2.5c0 .138.112.25.25.25h1.5c.414 0 .75.336.75.75s-.336.75-.75.75z" fill="#efb93f" data-original="#000000" style="" class=""/><path xmlns="http://www.w3.org/2000/svg" d="m20.75 20h-2.5c-.414 0-.75-.336-.75-.75v-4.5c0-.414.336-.75.75-.75s.75.336.75.75v3.75h1.75c.414 0 .75.336.75.75s-.336.75-.75.75z" fill="#efb93f" data-original="#000000" style="" class=""/><path xmlns="http://www.w3.org/2000/svg" d="m15.75 20h-2.5c-.414 0-.75-.336-.75-.75v-4.5c0-.414.336-.75.75-.75s.75.336.75.75v3.75h1.75c.414 0 .75.336.75.75s-.336.75-.75.75z" fill="#efb93f" data-original="#000000" style="" class=""/><path xmlns="http://www.w3.org/2000/svg" d="m4.708 20h-1.458c-.414 0-.75-.336-.75-.75s.336-.75.75-.75h1.458c.158 0 .292-.172.292-.375s-.134-.375-.292-.375h-.416c-.988 0-1.792-.841-1.792-1.875s.804-1.875 1.792-1.875h1.458c.414 0 .75.336.75.75s-.336.75-.75.75h-1.458c-.158 0-.292.172-.292.375s.134.375.292.375h.416c.988 0 1.792.841 1.792 1.875s-.804 1.875-1.792 1.875z" fill="#efb93f" data-original="#000000" style="" class=""/><path xmlns="http://www.w3.org/2000/svg" d="m21.25 23h-18.5c-1.517 0-2.75-1.233-2.75-2.75v-7.5c0-1.517 1.233-2.75 2.75-2.75h18.5c1.517 0 2.75 1.233 2.75 2.75v7.5c0 1.517-1.233 2.75-2.75 2.75zm-18.5-11.5c-.689 0-1.25.561-1.25 1.25v7.5c0 .689.561 1.25 1.25 1.25h18.5c.689 0 1.25-.561 1.25-1.25v-7.5c0-.689-.561-1.25-1.25-1.25z" fill="#efb93f" data-original="#000000" style="" class=""/><path xmlns="http://www.w3.org/2000/svg" d="m12 7c-1.654 0-3-1.346-3-3s1.346-3 3-3 3 1.346 3 3-1.346 3-3 3zm0-4.5c-.827 0-1.5.673-1.5 1.5s.673 1.5 1.5 1.5 1.5-.673 1.5-1.5-.673-1.5-1.5-1.5z" fill="#efb93f" data-original="#000000" style="" class=""/><path xmlns="http://www.w3.org/2000/svg" d="m6.75 11.5c-.103 0-.206-.021-.305-.064-.379-.168-.549-.611-.381-.99l3-6.75c.168-.38.615-.548.99-.381.379.168.549.611.381.99l-3 6.75c-.123.279-.398.445-.685.445z" fill="#efb93f" data-original="#000000" style="" class=""/><path xmlns="http://www.w3.org/2000/svg" d="m17.25 11.5c-.287 0-.562-.166-.686-.445l-3-6.75c-.168-.379.002-.822.381-.99.374-.167.822.001.99.381l3 6.75c.168.379-.002.822-.381.99-.098.043-.201.064-.304.064z" fill="#efb93f" data-original="#000000" style="" class=""/><script/></g></svg>
