<?xml version="1.0"?>
<svg xmlns="http://www.w3.org/2000/svg" xmlns:xlink="http://www.w3.org/1999/xlink" xmlns:svgjs="http://svgjs.com/svgjs" version="1.1" width="512" height="512" x="0" y="0" viewBox="0 0 128 128" style="enable-background:new 0 0 512 512" xml:space="preserve" class=""><g><g xmlns="http://www.w3.org/2000/svg"><path d="m93.91 35.16-.5 10.44-1.59 32.81a15.587 15.587 0 0 0 -6.3-1.32 15.769 15.769 0 0 0 -15.77 15.77 15.425 15.425 0 0 0 .87 5.15h-29.85a11.563 11.563 0 0 1 -11.55-11.01l-2-41.4-.5-10.44z" fill="#ffffff" data-original="#ffca3a" style="" class=""/><path d="m76.6 44.565a1.749 1.749 0 0 1 -1.75-1.75v-13.705a8.371 8.371 0 0 0 -8.361-8.36h-12.355a8.371 8.371 0 0 0 -8.361 8.36v13.7a1.75 1.75 0 0 1 -3.5 0v-13.7a11.874 11.874 0 0 1 11.861-11.86h12.354a11.874 11.874 0 0 1 11.861 11.86v13.7a1.75 1.75 0 0 1 -1.749 1.755z" fill="#ffffff" data-original="#511da3" style="" class=""/><path d="m101.28 92.86a15.763 15.763 0 0 1 -30.66 5.15 15.425 15.425 0 0 1 -.87-5.15 15.769 15.769 0 0 1 15.77-15.77 15.587 15.587 0 0 1 6.3 1.32 15.753 15.753 0 0 1 9.46 14.45z" fill="#357f5a" data-original="#8ac926" style="" class=""/><path d="m93 91.105h-5.735v-5.737a1.75 1.75 0 0 0 -3.5 0v5.737h-5.737a1.75 1.75 0 0 0 0 3.5h5.737v5.737a1.75 1.75 0 0 0 3.5 0v-5.737h5.735a1.75 1.75 0 0 0 0-3.5z" fill="#ffffff" data-original="#fffae3" style="" class=""/></g><script/></g></svg>
