<?xml version="1.0"?>
<svg xmlns="http://www.w3.org/2000/svg" xmlns:xlink="http://www.w3.org/1999/xlink" xmlns:svgjs="http://svgjs.com/svgjs" version="1.1" width="512" height="512" x="0" y="0" viewBox="0 0 511.882 511.882" style="enable-background:new 0 0 512 512" xml:space="preserve" class=""><g>
<polygon xmlns="http://www.w3.org/2000/svg" style="" points="350.216,176.572 278.374,158.615 37.038,264.123 0,338.207 125.753,374.324 386.13,258.531   " fill="#cfcfcf" data-original="#f6bb42" class=""/>
<polygon xmlns="http://www.w3.org/2000/svg" style="" points="350.216,176.572 107.756,284.345 125.753,374.324 386.13,258.531 " fill="#adadad" data-original="#ffce54" class=""/>
<polygon xmlns="http://www.w3.org/2000/svg" style="" points="107.756,284.345 37.038,264.123 0.015,338.207 125.753,374.324 " fill="#c1c1c1" data-original="#e8aa3d" class=""/>
<polygon xmlns="http://www.w3.org/2000/svg" style="" points="475.969,212.682 404.127,194.717 162.791,300.232 125.753,374.324 251.504,410.41   511.882,294.625 " fill="#cfcfcf" data-original="#f6bb42" class=""/>
<polygon xmlns="http://www.w3.org/2000/svg" style="" points="475.969,212.682 233.508,320.431 251.504,410.41 511.882,294.625 " fill="#adadad" data-original="#ffce54" class=""/>
<polygon xmlns="http://www.w3.org/2000/svg" style="" points="233.508,320.431 162.791,300.232 125.753,374.324 251.504,410.41 " fill="#c1c1c1" data-original="#e8aa3d" class=""/>
<polygon xmlns="http://www.w3.org/2000/svg" style="" points="396.316,119.429 324.488,101.473 103.867,198.435 66.843,272.519 192.596,308.621   432.245,201.379 " fill="#cfcfcf" data-original="#f6bb42" class=""/>
<polygon xmlns="http://www.w3.org/2000/svg" style="" points="396.316,119.429 174.6,218.641 192.596,308.621 432.245,201.379 " fill="#adadad" data-original="#ffce54" class=""/>
<polygon xmlns="http://www.w3.org/2000/svg" style="" points="174.6,218.641 103.867,198.435 66.843,272.519 192.596,308.621 " fill="#c1c1c1" data-original="#e8aa3d" class=""/>
<g xmlns="http://www.w3.org/2000/svg">
</g>
<g xmlns="http://www.w3.org/2000/svg">
</g>
<g xmlns="http://www.w3.org/2000/svg">
</g>
<g xmlns="http://www.w3.org/2000/svg">
</g>
<g xmlns="http://www.w3.org/2000/svg">
</g>
<g xmlns="http://www.w3.org/2000/svg">
</g>
<g xmlns="http://www.w3.org/2000/svg">
</g>
<g xmlns="http://www.w3.org/2000/svg">
</g>
<g xmlns="http://www.w3.org/2000/svg">
</g>
<g xmlns="http://www.w3.org/2000/svg">
</g>
<g xmlns="http://www.w3.org/2000/svg">
</g>
<g xmlns="http://www.w3.org/2000/svg">
</g>
<g xmlns="http://www.w3.org/2000/svg">
</g>
<g xmlns="http://www.w3.org/2000/svg">
</g>
<g xmlns="http://www.w3.org/2000/svg">
</g>
<script/></g></svg>
